<svg width="593" height="196" viewBox="0 0 593 196" fill="none" xmlns="http://www.w3.org/2000/svg">
<path d="M-1.70881e-05 97.7324C-1.10817e-05 63.3797 -8.07844e-06 46.2033 6.64742 33.1974C12.4947 21.7572 21.8248 12.4559 33.3007 6.62682C46.347 8.10357e-06 63.4256 1.10897e-05 97.5827 1.70619e-05L106.555 1.86306e-05C140.712 2.46028e-05 157.79 2.7589e-05 170.837 6.62685C182.313 12.456 191.643 21.7572 197.49 33.1975C204.137 46.2033 204.137 63.3797 204.137 97.7325V97.7325C204.137 132.085 204.137 149.262 197.49 162.267C191.643 173.708 182.313 183.009 170.837 188.838C157.79 195.465 140.712 195.465 106.555 195.465L97.5827 195.465C63.4255 195.465 46.347 195.465 33.3007 188.838C21.8248 183.009 12.4946 173.708 6.6474 162.267C-2.60977e-05 149.262 -2.30945e-05 132.085 -1.70881e-05 97.7324V97.7324Z" fill="#E31513"/>
<path d="M80.3753 76.3402C80.3753 75.1581 81.2713 74.1999 82.3766 74.1999H91.8174C92.9227 74.1999 93.8187 75.1581 93.8187 76.3402V119.124C93.8187 120.306 92.9227 121.265 91.8174 121.265H82.3766C81.2713 121.265 80.3753 120.306 80.3753 119.124V105.05C80.3753 103.868 79.4792 102.909 78.3739 102.909H58.4149C57.3096 102.909 56.4135 103.868 56.4135 105.05V119.124C56.4135 120.306 55.5175 121.265 54.4122 121.265H44.9714C43.8661 121.265 42.9701 120.306 42.9701 119.124V76.3402C42.9701 75.1581 43.8661 74.1999 44.9714 74.1999H54.4122C55.5175 74.1999 56.4135 75.1581 56.4135 76.3402V88.8012C56.4135 89.9833 57.3096 90.9415 58.4149 90.9415H78.3739C79.4792 90.9415 80.3753 89.9833 80.3753 88.8012V76.3402Z" fill="white"/>
<path d="M161.717 97.7323C161.717 100.691 161.198 103.447 160.161 106.002C159.123 108.512 157.547 110.709 155.431 112.591C153.315 114.474 150.638 115.976 147.402 117.096C144.697 118.007 141.575 118.564 138.037 118.768C136.948 118.831 136.075 119.778 136.075 120.944V121.276C136.075 122.458 135.179 123.416 134.073 123.416H124.632C123.527 123.416 122.631 122.458 122.631 121.276V120.944C122.631 119.778 121.758 118.831 120.669 118.768C117.125 118.565 113.982 118.007 111.242 117.096C108.047 115.976 105.391 114.474 103.275 112.591C101.159 110.709 99.5822 108.512 98.5449 106.002C97.5491 103.447 97.0512 100.691 97.0512 97.7323C97.0512 94.7739 97.5491 92.0173 98.5449 89.4623C99.5822 86.9074 101.159 84.6886 103.275 82.806C105.391 80.9234 108.047 79.4442 111.242 78.3685C113.977 77.4212 117.113 76.8583 120.65 76.6798C121.746 76.6244 122.631 75.6746 122.631 74.5005V74.1887C122.631 73.0066 123.527 72.0483 124.632 72.0483H134.073C135.179 72.0483 136.075 73.0066 136.075 74.1887V74.5005C136.075 75.6746 136.959 76.6243 138.056 76.6798C141.586 76.8585 144.702 77.4213 147.402 78.3685C150.638 79.4442 153.315 80.9234 155.431 82.806C157.547 84.6886 159.123 86.9074 160.161 89.4623C161.198 92.0173 161.717 94.7739 161.717 97.7323ZM110.246 97.7323C110.246 99.1218 110.495 100.444 110.993 101.699C111.532 102.909 112.32 103.963 113.358 104.859C114.436 105.711 115.785 106.406 117.403 106.944C119.063 107.437 121.013 107.683 123.253 107.683V107.683C123.322 107.683 123.378 107.624 123.378 107.55V87.9146C123.378 87.841 123.322 87.7814 123.253 87.7814V87.7814C121.013 87.7814 119.063 88.0504 117.403 88.5883C115.785 89.0813 114.436 89.7761 113.358 90.6726C112.32 91.5242 111.532 92.5552 110.993 93.7654C110.495 94.9756 110.246 96.2979 110.246 97.7323ZM135.452 107.683C137.693 107.683 139.643 107.437 141.303 106.944C142.962 106.406 144.311 105.711 145.348 104.859C146.427 103.963 147.215 102.909 147.713 101.699C148.253 100.444 148.522 99.1218 148.522 97.7323C148.522 96.2979 148.253 94.9756 147.713 93.7654C147.215 92.5552 146.427 91.5242 145.348 90.6726C144.311 89.7761 142.962 89.0813 141.303 88.5883C139.643 88.0504 137.693 87.7814 135.452 87.7814V87.7814C135.383 87.7814 135.328 87.841 135.328 87.9146V107.55C135.328 107.624 135.383 107.683 135.452 107.683V107.683Z" fill="white"/>
<g clip-path="url(#clip0_824_262)">
<path d="M292.002 40H301.923V84.3843H292.002V66.1595H274.765V84.3843H264.854V40H274.765V57.2267H292.002V40Z" fill="#101010"/>
<path d="M337.574 70.8706H316.185C317.054 75.3919 319.968 77.378 325.428 77.378C329.036 77.4042 332.593 76.5294 335.778 74.833V82.6479C332.413 84.3343 328.691 85.1834 324.929 85.1231C313.95 85.1231 307.143 78.6755 307.143 68.2058C307.143 57.9655 313.59 50.979 322.883 50.979C331.745 50.979 337.574 57.5563 337.574 67.5969V70.8706ZM316.185 64.6127H329.081C328.651 60.5206 326.665 58.4047 322.942 58.4047C319.22 58.4047 316.894 60.5206 316.185 64.6127Z" fill="#101010"/>
<path d="M341.556 68.0757C341.556 57.9652 348.433 50.9787 358.474 50.9787C361.537 50.9155 364.56 51.6884 367.217 53.2144V62.3867C364.972 60.458 362.112 59.3959 359.152 59.3924C353.823 59.3924 350.908 62.4865 350.908 68.0657C350.908 73.6449 353.903 76.6891 359.152 76.6891C362.112 76.6839 364.971 75.622 367.217 73.6948V82.917C364.559 84.44 361.536 85.2095 358.474 85.1427C348.373 85.1228 341.556 78.246 341.556 68.0757Z" fill="#101010"/>
<path d="M405.802 84.3844H394.215L383.366 70.0021V84.3844H374.004V51.7174H383.366V64.9519L394.275 51.6875H405.553L392.418 67.1477L405.802 84.3844Z" fill="#101010"/>
<path d="M431.672 51.8369H441.174L424.566 84.3841H415.104L420.624 73.4053L407.389 51.8369H417.37L425.045 64.5923L431.672 51.8369Z" fill="#101010"/>
<path d="M461.695 51.7173H471.046V84.3842H461.695V73.4753C459.697 74.034 457.63 74.3029 455.556 74.2737C447.312 74.2737 442.781 70.002 442.781 62.1871V51.7173H452.143V61.1391C452.143 64.4826 453.7 65.9099 457.223 65.9099C458.744 65.9054 460.255 65.6526 461.695 65.1613V51.7173Z" fill="#101010"/>
<path d="M498.124 51.7173H507.526V84.3842H498.164V71.7386H487.964V84.3842H478.582V51.7173H487.944V63.804H498.104L498.124 51.7173Z" fill="#101010"/>
<path d="M531.48 61.7579C538.606 61.7579 543.317 66.2193 543.317 73.096C543.317 79.9727 538.566 84.3842 531.48 84.3842H515.111V51.7173H524.224V61.7579H531.48ZM529.613 77.4376C532.717 77.4376 534.324 75.9505 534.324 73.096C534.324 70.2415 532.777 68.6945 529.613 68.6945H524.224V77.4376H529.613ZM547.339 51.7173H556.701V84.3842H547.339V51.7173Z" fill="#101010"/>
<path d="M592.801 70.8706H571.403C572.271 75.3919 575.185 77.378 580.635 77.378C584.243 77.4068 587.801 76.5318 590.985 74.833V82.6479C587.624 84.3331 583.905 85.1822 580.146 85.1231C569.107 85.1231 562.35 78.6755 562.35 68.2057C562.36 57.9655 568.808 50.979 578.11 50.979C586.973 50.979 592.801 57.5563 592.801 67.5969V70.8706ZM571.403 64.6127H584.298C583.859 60.5206 581.873 58.4047 578.16 58.4047C574.447 58.4047 572.091 60.5206 571.403 64.6127Z" fill="#101010"/>
<path d="M289.088 145.506V159.15H279.726V145.506C268.877 145.197 262 138.629 262 128.459C262 118.289 268.987 111.662 279.726 111.352V98.7065H289.088V111.352C299.927 111.662 306.913 118.299 306.913 128.459C306.913 138.619 299.997 145.197 289.088 145.506ZM280.105 137.522V119.347C274.117 119.476 271.063 122.57 271.063 128.459C271.063 134.348 274.087 137.392 280.095 137.512L280.105 137.522ZM288.728 137.522C294.717 137.402 297.841 134.298 297.841 128.469C297.841 122.64 294.737 119.486 288.728 119.357V137.522Z" fill="#101010"/>
<path d="M321.765 131.683L332.983 112.101H342.405V144.797H333.233V124.746L321.765 144.797H312.592V112.101H321.765V131.683Z" fill="#101010"/>
<path d="M369.483 112.101H378.844V144.797H369.483V132.122H359.312V144.797H349.95V112.101H359.312V124.187H369.483V112.101Z" fill="#101010"/>
<path d="M412.2 124.247V144.798H403.726V140.805C402.871 142.301 401.621 143.532 400.112 144.363C398.603 145.194 396.894 145.593 395.173 145.516C389.184 145.516 384.953 141.614 384.953 136.154C384.953 131.444 388.107 127.98 393.995 126.862L402.978 125.186C402.848 121.652 400.183 119.676 395.911 119.676C392.438 119.722 389.06 120.825 386.23 122.84V114.267C389.566 112.233 393.424 111.22 397.329 111.352C406.561 111.352 412.2 116.133 412.2 124.247ZM402.908 136.144V131.374L397.199 132.432C394.973 132.861 393.915 133.919 393.915 135.655C393.915 137.572 395.283 138.65 397.698 138.65C398.704 138.683 399.703 138.473 400.611 138.037C401.518 137.601 402.306 136.951 402.908 136.144V136.144Z" fill="#101010"/>
<path d="M438.739 112.101H448.101V144.797H438.739V132.122H428.578V144.797H419.217V112.101H428.578V124.187H438.739V112.101Z" fill="#101010"/>
<path d="M453.74 128.459C453.74 118.299 460.617 111.352 470.657 111.352C473.721 111.289 476.743 112.062 479.4 113.588V122.76C477.159 120.832 474.302 119.77 471.346 119.766C466.016 119.766 463.102 122.86 463.102 128.439C463.102 134.018 466.096 137.063 471.346 137.063C474.301 137.054 477.157 135.993 479.4 134.068V143.241C476.743 144.764 473.72 145.533 470.657 145.466C460.557 145.506 453.74 138.63 453.74 128.459Z" fill="#101010"/>
<path d="M502.536 122.141C509.662 122.141 514.373 126.603 514.373 133.48C514.373 140.356 509.642 144.798 502.536 144.798H486.157V112.101H495.27V122.141H502.536ZM500.659 137.811C503.753 137.811 505.37 136.324 505.37 133.47C505.37 130.615 503.823 129.068 500.659 129.068H495.27V137.811H500.659ZM518.385 112.091H527.747V144.798H518.385V112.091Z" fill="#101010"/>
</g>
<defs>
<clipPath id="clip0_824_262">
<rect width="330.801" height="119.15" fill="white" transform="translate(262 40)"/>
</clipPath>
</defs>
</svg>
